# Blender v2.77 (sub 0) OBJ File: 'P2k.blend'
# www.blender.org
mtllib P2k.mtl
o Cube
v -0.904228 -0.868115 4.719612
v -1.000311 -0.504044 -4.802118
v 0.999689 -0.504044 -4.802247
v 0.904839 -0.868115 4.719496
v -0.999695 0.869415 4.719615
v -1.000285 0.582150 -4.414502
v 0.999714 0.582150 -4.414627
v 1.000306 0.869415 4.719488
v -1.000117 -1.000000 -1.809879
v 0.999883 -1.000000 -1.810007
v -1.000117 0.869415 -1.809882
v 0.999883 0.869415 -1.810007
v -0.943508 -4.395468 -2.011002
v -1.000309 -4.395468 -4.776032
v 0.999691 -4.395468 -4.776161
v 0.943247 -4.395468 -2.011122
v -1.000118 -4.893724 -1.823873
v -1.000301 -4.893724 -4.655970
v 0.999699 -4.893724 -4.656099
v 0.999882 -4.893724 -1.824001
v 0.999876 -2.686358 -1.908007
v 0.999724 -1.781727 -4.258733
v -1.000276 -1.781727 -4.258605
v -1.000124 -2.686358 -1.907879
v -0.218774 -1.000000 4.719568
v -0.242522 -0.504044 -4.944243
v -0.241896 1.000000 4.719567
v -0.242487 0.893296 -4.414549
v -0.242319 1.000000 -1.809929
v -0.242319 -1.000000 -1.809928
v -0.242517 -4.395468 -4.874421
v -0.242319 -4.395468 -1.809928
v -0.242510 -4.893724 -4.755255
v -0.242305 -4.893724 -1.593084
v -0.242325 -2.686358 -1.907927
v -0.242492 -1.781727 -4.482126
v 0.286992 -1.000000 4.719536
v 0.316624 -0.504044 -4.944279
v 0.317249 1.000000 4.719532
v 0.316658 0.893296 -4.414584
v 0.316827 -1.000000 -1.809964
v 0.316628 -4.395468 -4.874457
v 0.316827 -4.395468 -1.809964
v 0.316636 -4.893724 -4.755291
v 0.316841 -4.893724 -1.593120
v 0.316820 -2.686358 -1.907963
v 0.316827 1.000000 -1.809965
v 0.316654 -1.781727 -4.482162
v -0.242161 -1.014205 0.650438
v -0.242168 -2.700563 0.552439
v 0.316984 -1.014205 0.650402
v 0.316978 -2.700563 0.552403
vn 0.9999 -0.0143 0.0085
vn 0.3069 0.9490 -0.0718
vn -1.0000 0.0000 0.0001
vn 0.1737 0.3412 -0.9238
vn 0.9996 -0.0265 0.0075
vn 0.0001 0.0000 1.0000
vn 1.0000 -0.0000 -0.0001
vn -0.9996 -0.0265 0.0076
vn 0.1878 0.9822 -0.0000
vn 0.1009 -0.9948 0.0110
vn 0.1392 -0.2312 -0.9629
vn 0.2260 0.1670 -0.9597
vn -0.1365 -0.0037 0.9906
vn -0.9999 -0.0143 0.0086
vn 0.0000 -1.0000 0.0000
vn 0.9982 0.0598 0.0100
vn -0.2631 0.3753 0.8888
vn -0.9982 0.0598 0.0102
vn 0.0001 -0.0580 0.9983
vn 0.2416 -0.3554 -0.9030
vn -0.2190 -0.3573 -0.9079
vn 0.0001 0.3991 0.9169
vn 0.0001 0.0572 0.9984
vn -0.2048 0.1678 -0.9643
vn -0.1258 -0.2316 -0.9646
vn -0.0910 -0.9958 0.0109
vn -0.1698 0.9855 0.0000
vn -0.1572 0.3422 -0.9264
vn -0.2791 0.9575 -0.0724
vn 0.1519 -0.0040 0.9884
vn 0.2906 0.3736 0.8809
vn -0.0001 -0.3401 -0.9404
vn -0.0001 0.1484 -0.9889
vn -0.0001 -0.2326 -0.9726
vn 0.0000 1.0000 0.0000
vn -0.0001 0.3545 -0.9351
vn -0.0000 0.9992 -0.0409
vn -0.0000 -1.0000 -0.0058
vn 0.0000 1.0000 0.0058
usemtl Material
s off
f 22//1 21//1 16//1 15//1
f 47//2 12//2 7//2 40//2
f 9//3 11//3 6//3 2//3
f 38//4 40//4 7//4 3//4
f 10//5 12//5 8//5 4//5
f 39//6 37//6 4//6 8//6
f 3//7 7//7 12//7 10//7
f 1//8 5//8 11//8 9//8
f 39//9 8//9 12//9 47//9
f 37//10 41//10 10//10 4//10
f 42//11 15//11 19//11 44//11
f 48//12 22//12 15//12 42//12
f 35//13 24//13 13//13 32//13
f 24//14 23//14 14//14 13//14
f 45//15 44//15 19//15 20//15
f 15//16 16//16 20//16 19//16
f 32//17 13//17 17//17 34//17
f 13//18 14//18 18//18 17//18
f 9//3 2//3 23//3 24//3
f 30//19 9//19 24//19 35//19
f 38//20 3//20 22//20 48//20
f 3//7 10//7 21//7 22//7
f 2//21 26//21 36//21 23//21
f 30//3 35//3 50//3 49//3
f 43//22 32//22 34//22 45//22
f 17//15 18//15 33//15 34//15
f 46//23 35//23 32//23 43//23
f 23//24 36//24 31//24 14//24
f 14//25 31//25 33//25 18//25
f 1//26 9//26 30//26 25//26
f 5//27 27//27 29//27 11//27
f 5//6 1//6 25//6 27//6
f 2//28 6//28 28//28 26//28
f 11//29 29//29 28//29 6//29
f 21//30 46//30 43//30 16//30
f 16//31 43//31 45//31 20//31
f 10//19 41//19 46//19 21//19
f 26//32 38//32 48//32 36//32
f 34//15 33//15 44//15 45//15
f 36//33 48//33 42//33 31//33
f 31//34 42//34 44//34 33//34
f 25//15 30//15 41//15 37//15
f 27//35 39//35 47//35 29//35
f 27//6 25//6 37//6 39//6
f 26//36 28//36 40//36 38//36
f 29//37 47//37 40//37 28//37
f 51//19 49//19 50//19 52//19
f 35//38 46//38 52//38 50//38
f 46//7 41//7 51//7 52//7
f 41//39 30//39 49//39 51//39
